<?xml version="1.0" encoding="UTF-8" standalone="no"?>
<svg
   width="1080"
   zoomAndPan="magnify"
   viewBox="0 0 810 809.999993"
   height="1080"
   preserveAspectRatio="xMidYMid meet"
   version="1.0"
   id="svg2"
   sodipodi:docname="bonfirelogo.svg"
   inkscape:version="1.3.2 (091e20e, 2023-11-25, custom)"
   xmlns:inkscape="http://www.inkscape.org/namespaces/inkscape"
   xmlns:sodipodi="http://sodipodi.sourceforge.net/DTD/sodipodi-0.dtd"
   xmlns="http://www.w3.org/2000/svg"
   xmlns:svg="http://www.w3.org/2000/svg">
  <defs
     id="defs2" />
  <sodipodi:namedview
     id="namedview2"
     pagecolor="#ffffff"
     bordercolor="#000000"
     borderopacity="0.25"
     inkscape:showpageshadow="2"
     inkscape:pageopacity="0.0"
     inkscape:pagecheckerboard="0"
     inkscape:deskcolor="#d1d1d1"
     inkscape:zoom="0.65603796"
     inkscape:cx="403.17789"
     inkscape:cy="826.93386"
     inkscape:window-width="1366"
     inkscape:window-height="697"
     inkscape:window-x="-8"
     inkscape:window-y="-8"
     inkscape:window-maximized="1"
     inkscape:current-layer="svg2" />
  <path
     fill="#ff5b1e"
     d="m 583.07031,755.19141 c -15.95703,27.66406 -36.92968,38.125 -43.00781,34.60156 -6.09375,-3.52344 -7.49219,-26.87891 8.47266,-54.54297 15.97265,-27.64062 36.90625,-38.11719 43,-34.59766 6.07031,3.51172 7.48828,26.89454 -8.46485,54.53907 z m -316.78125,34.60156 c -6.08984,3.52344 -27.03906,-6.9375 -43.00781,-34.60156 -15.95312,-27.64453 -14.55078,-51.02735 -8.46094,-54.53907 6.08985,-3.51953 27.03907,6.95704 42.9961,34.59766 15.96875,27.66406 14.55078,51.01953 8.47265,54.54297 z m 331.67969,-100.27344 -96.84766,-46.02344 36.80469,-25.38671 c 9.41797,-5.42969 8.41491,-24.81299 -2.24609,-43.27344 -10.65931,-18.45752 -26.53816,-28.24864 -36.35938,-23.58203 l -96.14453,45.68359 -96.16016,-45.68359 c -9.41015,-5.44141 -25.68359,5.125 -36.34374,23.58203 -10.66016,18.46094 -11.66407,37.84375 -2.25,43.27344 l 36.80859,25.38671 -96.84375,46.02344 c -15.69141,9.05859 -14.01172,41.33985 3.75781,72.10938 17.74219,30.77343 44.875,48.37109 60.59375,39.3164 l 130.4375,-89.93359 130.4375,89.93359 c 15.71875,9.05469 42.82031,-8.54297 60.59766,-39.3164 17.76562,-30.76953 19.44531,-63.05079 3.75781,-72.10938"
     fill-opacity="1"
     fill-rule="nonzero"
     id="path1"
     sodipodi:nodetypes="cccccccccccccsscccccccccccc" />
  <path
     fill="#ff5b1e"
     d="m 380.56094,354.05795 c 50.03579,-26.1335 43.72031,-61.32358 49.20468,-74.93295 11.13672,25.53906 21.99219,51.21484 29.92579,77.94531 12.75,43.05078 25.26562,107.28516 -10.42188,145.75 C 410.62891,544.46094 310,515.75781 309.58594,456.20703 c -0.42188,-65.26172 36.01605,-79.58396 70.975,-102.14908 z M 258.19922,492.92969 c 69.59375,82.99609 251.48047,74.71484 303.60547,-21.71875 55.52344,-102.72656 -7.125,-234.1836 -58.52735,-319.86328 C 471.36719,98.128906 433.65625,48.847656 395.51172,0.015625 c -4.32031,32.355469 30.16015,100.085935 -34.69531,215.589845 -8.31641,14.83203 -20.98438,27.61719 -35.2461,40.09375 -14.05859,-40.35938 -5.8125,-68.01953 -9.28125,-82.53125 -20.59375,32.74609 -40.90234,65.76562 -57.36328,100.84766 -26.50781,56.48046 -57.07812,142.11328 -16.08594,202.42578 4.26172,6.26562 9.45313,11.74609 15.35938,16.48828"
     fill-opacity="1"
     fill-rule="nonzero"
     id="path2"
     sodipodi:nodetypes="cccccccccccccccc" />
</svg>
